<?xml version="1.0" ?><svg xmlns="http://www.w3.org/2000/svg" viewBox="0 0 64 64">
    <title>family</title>
    <path fill="#ffb300" d="M 23.90 4.50 s -0.60 -2.50 -6.90 -2.50 c -9.70 0.0 -15.0 6.30 -15.0 14.70 v 18.50 h 30.0 v -18.50 c 0.0 -12.40 -8.10 -12.20 -8.10 -12.20 z"/>
    <path fill="#01579b" d="m 32.0 34.80 v 27.20 h 30.0 v -27.20 c 0.0 -5.80 -30.0 -5.80 -30.0 0.0"/>
    <path fill="#c2185b" d="M 32.0 62.0 v -27.20 c 0.0 -5.80 -30.0 -5.80 -30.0 0.0 v 27.20 h 30.0 z"/>
    <path fill="#ffdd67" d="m 6.40 23.60 s -2.20 -0.60 -2.20 -3.90 c 0.0 -2.60 1.70 -3.10 1.70 -3.10 c 6.0 0.0 15.80 -7.80 15.80 -7.80 s 3.70 6.90 7.30 7.80 c 0.0 0.0 1.70 3.0 1.70 3.10 c 0.0 3.30 -2.30 3.90 -2.30 3.90 c 0.0 5.0 -6.80 10.0 -11.0 10.0 c -4.0 0.0 -11.0 -5.0 -11.0 -10.0"/>
    <g fill="#937237">
        <circle cx="12.1" cy="20.3" r="2.2"/>
        <circle cx="22.9" cy="20.3" r="2.2"/>
        <path d="m 21.10 27.10 c -2.30 1.80 -4.90 1.80 -7.20 0.0 c -0.30 -0.20 -0.50 2.0 -0.30 5.0 c 7.0 1.30 2.10 2.40 3.90 2.40 s 3.20 -1.10 3.90 -2.40 c 0.20 -0.30 0.0 -0.70 -0.30 -0.50"/>
    </g>
    <path fill="#ffb300" d="m 31.90 17.30 l 1.50 2.80 h 26.20 l 1.10 -2.90 c 0.0 -10.60 -2.50 -15.0 -14.10 -15.10 c -11.80 -0.20 -14.70 4.50 -14.70 15.20"/>
    <path fill="#ffdd67" d="m 59.70 17.10 c -0.10 6.0 -0.20 1.20 -0.40 1.50 c -0.30 6.0 -0.90 9.0 -0.90 9.0 s 0.20 -1.20 1.0 -2.80 c -0.70 -9.70 -1.20 -5.10 -11.90 -5.10 c -10.70 0.0 -11.30 -4.70 -11.90 5.0 c -0.10 1.70 1.0 2.80 1.0 2.80 s -0.60 -0.30 -0.90 -0.90 c -0.20 -0.30 -0.30 -0.90 -0.40 -1.50 c -1.0 -0.30 -2.30 0.0 -2.30 2.90 c 0.0 1.80 7.0 3.30 2.90 3.50 c 8.0 6.10 8.90 10.10 12.60 10.10 c 3.60 0.0 11.80 -4.10 12.60 -10.10 c 2.20 -0.20 2.90 -1.70 2.90 -3.50 c -0.20 -2.80 -1.50 -3.0 -2.50 -2.80"/>
    <g fill="#937237">
        <circle cx="41" cy="20.3" r="2.2"/>
        <circle cx="52" cy="20.3" r="2.2"/>
        <path d="m 50.10 27.10 c -2.30 1.80 -4.90 1.80 -7.20 0.0 c -0.30 -0.20 -0.50 2.0 -0.30 5.0 c 7.0 1.30 2.10 2.40 3.90 2.40 s 3.20 -1.10 3.90 -2.40 c 0.20 -0.30 0.0 -0.70 -0.30 -0.50"/>
    </g>
    <path fill="#29b6f6" d="m 57.0 62.0 h -25.0 c 0.0 -8.40 25.0 -8.40 25.0 0.0"/>
    <path fill="#ffb300" d="m 44.50 36.0 c -6.70 0.0 -10.90 3.80 -10.90 8.50 v 3.20 c 0.0 3.70 2.90 3.70 2.90 3.70 h 16.40 s 2.50 0.0 2.50 -3.70 v -3.20 c 0.0 -4.70 -4.40 -8.50 -10.90 -8.50"/>
    <path fill="#ffdd67" d="m 34.60 48.50 l 0.40 -4.50 c 0.0 -2.90 4.50 -0.60 9.50 -0.60 s 9.50 -2.30 9.50 6.0 l 0.40 4.50 c 2.20 0.0 2.20 3.50 0.0 3.50 c 0.0 4.40 -5.90 7.0 -9.90 7.0 s -9.90 -2.60 -9.90 -7.0 c -2.10 0.0 -2.10 -3.50 0.0 -3.50"/>
    <g fill="#937237">
        <circle cx="39.7" cy="49.8" r="1.8"/>
        <circle cx="49.3" cy="49.8" r="1.8"/>
        <path d="m 41.40 54.40 c 2.0 1.50 4.30 1.50 6.30 0.0 c 0.20 -0.20 5.0 1.0 3.0 4.0 c -0.60 1.10 -1.90 2.0 -3.40 2.0 c -1.60 0.0 -2.80 -1.0 -3.40 -2.0 c -0.30 -0.30 -0.10 -0.60 2.0 -0.40"/>
    </g>
    <path fill="#ffb300" d="m 30.0 51.60 h 0.90 v -5.70 c 0.0 -5.50 -4.40 -9.80 -11.60 -9.80 c -6.90 0.0 -11.60 4.40 -11.60 9.80 v 5.70 h 1.20 c -1.50 1.70 -2.70 5.40 -1.40 7.70 c 5.0 9.0 5.90 4.20 6.40 -1.60 h 11.10 c 0.50 5.80 5.90 2.50 6.40 1.60 c 1.30 -2.30 1.0 -6.0 -1.40 -7.70"/>
    <g fill="#ff81ab">
        <path d="m 19.30 37.80 c -6.20 0.0 -10.40 3.20 -10.40 7.20 v 1.20 c 0.0 -4.0 4.20 -7.20 10.40 -7.20 c 6.40 0.0 10.40 3.20 10.40 7.20 v -1.20 c 0.0 -4.0 -3.90 -7.20 -10.40 -7.20 m -12.30 24.20 h 25.0 c 0.0 -8.40 -25.0 -8.40 -25.0 0.0"/>
    </g>
    <path fill="#ffdd67" d="m 29.30 52.80 s 1.80 3.0 1.80 -1.70 c 0.0 -1.60 -1.80 -1.50 -1.80 -1.50 v -1.80 s -13.50 -0.60 -16.60 -5.70 c 0.80 5.10 -3.30 7.40 -3.30 7.40 s -1.80 -0.20 -1.80 1.50 c 0.0 2.0 1.80 1.70 1.80 1.70 c 0.0 3.0 5.30 6.20 10.20 6.20 c 4.40 1.0 9.70 -2.60 9.70 -6.10"/>
    <g fill="#937237">
        <path d="m 25.80 49.80 c 0.0 1.0 -0.80 1.80 -1.80 1.80 s -1.80 -0.80 -1.80 -1.80 s 9.0 -1.80 1.80 -1.80 c 1.0 0.0 1.80 8.0 1.80 1.80"/>
        <circle cx="14.9" cy="49.8" r="1.8"/>
        <path d="m 22.60 54.40 c -2.0 1.50 -4.30 1.50 -6.30 0.0 c -0.20 -0.20 -0.50 1.0 -0.30 4.0 c 6.0 1.10 1.90 2.0 3.40 2.0 c 1.60 0.0 2.80 -1.0 3.40 -2.0 c 0.30 -0.30 0.0 -0.60 -0.20 -0.40"/>
    </g>
</svg>