<svg xmlns="http://www.w3.org/2000/svg" viewBox="0 0 64 64">
    <title>shinto shrine</title>
    <path fill="#c2185b" d="M29 9h6v12h-6z"/>
    <path fill="#ed4c5c" d="M9 9h8v44H9z"/>
    <g fill="#f46767">
        <path d="M10 14h5v4h-5zM10 22h5v28h-5z"/>
    </g>
    <path fill="#c2185b" d="M6.9 9h12v4h-12z"/>
    <path fill="#c43678" d="M7.5 8h10v4h-10z"/>
    <path fill="#c2185b" d="M21 16s-2.8 2-8 2-8-2-8-2l.2 4.1s2.2 1.5 6.5 1.9h2.5c4.3-.5 6.5-1.9 6.5-1.9L21 16"/>
    <path fill="#454749" d="M8 51h10v3H8z"/>
    <path fill="#635849" d="M9 52h7v2H9z"/>
    <path fill="#454749" d="M7 54h12v10H7z"/>
    <path fill="#635849" d="M8 55h9v9H8z"/>
    <path fill="#ed4c5c" d="M47 9h8v44h-8z"/>
    <g fill="#f46767">
        <path d="M48 14h5v4h-5zM48 22h5v28h-5z"/>
    </g>
    <path fill="#c2185b" d="M44.9 9h12v4h-12z"/>
    <path fill="#c43678" d="M45.5 8h10v4h-10z"/>
    <path fill="#c2185b" d="M59 16s-2.8 2-8 2-8-2-8-2l.2 4.1s2.2 1.5 6.5 1.9h2.5c4.3-.5 6.5-1.9 6.5-1.9L59 16"/>
    <path fill="#454749" d="M46 51h10v3H46z"/>
    <path fill="#635849" d="M47 52h7v2h-7z"/>
    <path fill="#454749" d="M45 54h12v10H45z"/>
    <path fill="#635849" d="M46 55h9v9h-9z"/>
    <g fill="#c43678">
        <path d="M4 20h56v4H4zM32 7C12.7 7 2 5 2 5l.8 4s10.1 2 29.2 2 29.2-2 29.2-2l.8-4S51.3 7 32 7"/>
    </g>
    <path fill="#454749" d="M32 2.7C11.4 2.7 0 0 0 0l.8 5.3S11.6 8 32 8s31.2-2.7 31.2-2.7L64 0S52.6 2.7 32 2.7z"/>
</svg>